<svg xmlns="http://www.w3.org/2000/svg" aria-hidden="true" style="position:absolute;width:0;height:0;overflow:hidden">
  <defs>
    <symbol id="icon-okey" viewBox="0 0 32 32">
      <path d="M16 30a14 14 0 1 1 0-28 14 14 0 0 1 0 28zm0 2a16 16 0 1 0 0-32 16 16 0 0 0 0 32z"/>
      <path d="M22 10h-.1l-7 8.8-4.1-4.2a1.5 1.5 0 0 0-2.2 2.2L14 22l.5.3.6.1a1.5 1.5 0 0 0 1.1-.5l8-10a1.5 1.5 0 0 0-2.2-2z"/>
    </symbol>
    <symbol id="icon-untill" viewBox="0 0 32 32">
      <path d="M16 9.5a6.5 6.5 0 1 0 0 13 6.5 6.5 0 0 0 0-13zM11.5 16a4.5 4.5 0 1 1 9 0 4.5 4.5 0 0 1-9 0z"/>
      <path d="M19.6 2.7c-1-3.6-6.1-3.6-7.2 0l-.2.6a1.8 1.8 0 0 1-2.5 1L9.1 4c-3.3-1.7-6.8 1.8-5 5.1l.3.6a1.7 1.7 0 0 1-1 2.5l-.7.2c-3.6 1-3.6 6.1 0 7.2l.6.2a1.8 1.8 0 0 1 1 2.5l-.3.6c-1.7 3.3 1.8 6.8 5.1 5l.6-.3a1.7 1.7 0 0 1 2.5 1l.2.7c1 3.6 6.1 3.6 7.2 0l.2-.6a1.8 1.8 0 0 1 2.5-1l.6.3c3.3 1.7 6.8-1.8 5-5.1l-.3-.6a1.7 1.7 0 0 1 1-2.5l.7-.2c3.6-1 3.6-6.1 0-7.2l-.6-.2a1.8 1.8 0 0 1-1-2.5l.3-.6c1.7-3.3-1.8-6.8-5.1-5l-.6.3a1.7 1.7 0 0 1-2.5-1l-.2-.7zm-5.3.6a1.7 1.7 0 0 1 3.4 0l.2.6A3.7 3.7 0 0 0 23.2 6l.6-.3c1.6-.8 3.2.8 2.4 2.4l-.3.6A3.7 3.7 0 0 0 28 14l.6.2c1.7.5 1.7 2.9 0 3.4l-.6.2a3.7 3.7 0 0 0-2.2 5.3l.3.6c.8 1.6-.8 3.2-2.4 2.4l-.6-.3A3.7 3.7 0 0 0 18 28l-.2.6a1.7 1.7 0 0 1-3.4 0l-.2-.6A3.7 3.7 0 0 0 8.8 26l-.6.3c-1.6.8-3.2-.8-2.4-2.4l.3-.6A3.7 3.7 0 0 0 4 18l-.7-.2a1.7 1.7 0 0 1 0-3.4l.7-.2A3.7 3.7 0 0 0 6 8.8l-.3-.6C5 6.6 6.6 5 8.2 5.8l.5.3A3.8 3.8 0 0 0 14.1 4l.2-.7z"/>
    </symbol>
    <symbol id="icon-gas" viewBox="0 0 32 32">
      <path d="M6 5a1 1 0 0 1 1-1h10a1 1 0 0 1 1 1v10a1 1 0 0 1-1 1H7a1 1 0 0 1-1-1V5z"/>
      <path d="M2 4a4 4 0 0 1 4-4h12a4 4 0 0 1 4 4v16a4 4 0 0 1 4 4v1a1 1 0 0 0 1.7.7c.2-.2.3-.4.3-.7v-9h-1a1 1 0 0 1-1-1V8.7a1 1 0 0 1 1-1h3c0-.9-.1-1.7-.4-2.4a2 2 0 0 0-.8-1c-.4-.1-1-.3-1.8-.3a1 1 0 0 1-.7-1.7c.2-.2.4-.3.7-.3 1.1 0 2 .2 2.8.7a4 4 0 0 1 1.6 1.8c.6 1.3.6 3 .6 4.1V15a1 1 0 0 1-.3.7 1 1 0 0 1-.7.3h-1v9a3 3 0 1 1-6 0v-1a2 2 0 0 0-2-2v8h1a1 1 0 0 1 .7 1.7 1 1 0 0 1-.7.3H1a1 1 0 0 1-.7-1.7c.2-.2.4-.3.7-.3h1V4zm18 0a2 2 0 0 0-2-2H6a2 2 0 0 0-2 2v26h16V4z"/>
    </symbol>
    <symbol id="icon-car" viewBox="0 0 43 32">
      <path d="M10.7 18.7a2.7 2.7 0 1 1-5.4 0 2.7 2.7 0 0 1 5.4 0zm26.6 0a2.7 2.7 0 1 1-5.3 0 2.7 2.7 0 0 1 5.3 0zM16 16a2.7 2.7 0 0 0 0 5.3h10.7a2.7 2.7 0 0 0 0-5.3H16zM13 6l-2.6 5.2A1.4 1.4 0 0 0 11 13l.7.1a129 129 0 0 1 20-.1 1.4 1.4 0 0 0 .5-1.8L29.7 6a1.3 1.3 0 0 0-1.2-.8H14.2a1.3 1.3 0 0 0-1.2.8z"/>
      <path d="M6.7 4a6.7 6.7 0 0 1 6.1-4h17c2.7 0 5 1.6 6.1 4l2.2 5c.2.4.5.8 1 1 1.3.7 2.2 2 2.5 3.4l1 4.5v2.3c0 2.3-1 4.2-2.6 5.4v5c0 .4-.1.8-.4 1s-.6.4-1 .4h-5.3c-.3 0-.7-.1-1-.4s-.3-.6-.3-1v-3.5a301.6 301.6 0 0 1-21.3 0v3.6c0 .3-.2.7-.4 1s-.6.3-1 .3H4c-.4 0-.7-.1-1-.4s-.3-.6-.3-1v-5A6.6 6.6 0 0 1 0 20.3v-1.1l.1-1.3 1-4.5A4.8 4.8 0 0 1 3.5 10c.4-.2.8-.6 1-1l2.1-5zM13 2.7A4 4 0 0 0 9.2 5L7 10c-.5 1-1.3 1.8-2.3 2.3L4 13l-.4 1-.9 4.4v1.8a4 4 0 0 0 3.7 4 360.7 360.7 0 0 0 29.8 0 4 4 0 0 0 3.8-4v-1.8L39 14a2.1 2.1 0 0 0-1.1-1.5c-1-.5-1.9-1.3-2.3-2.4l-2.1-5a4 4 0 0 0-3.7-2.3h-17z"/>
    </symbol>
    <symbol id="icon-calendar" viewBox="0 0 32 32">
      <path d="M7 0a1 1 0 0 1 1 1v1h16V1a1 1 0 0 1 1.7-.7c.2.2.3.4.3.7v1h2a4 4 0 0 1 4 4v22a4 4 0 0 1-4 4H4a4 4 0 0 1-4-4V6a4 4 0 0 1 4-4h2V1a1 1 0 0 1 1-1zM4 4a2 2 0 0 0-2 2v22a2 2 0 0 0 2 2h24a2 2 0 0 0 2-2V6a2 2 0 0 0-2-2H4z"/>
      <path d="M5 8a1 1 0 0 1 1-1h20a1 1 0 0 1 1 1v2a1 1 0 0 1-1 1H6a1 1 0 0 1-1-1V8zm17 7a1 1 0 0 1 1-1h2a1 1 0 0 1 1 1v2a1 1 0 0 1-1 1h-2a1 1 0 0 1-1-1v-2zm-6 0a1 1 0 0 1 1-1h2a1 1 0 0 1 1 1v2a1 1 0 0 1-1 1h-2a1 1 0 0 1-1-1v-2zM6 21a1 1 0 0 1 1-1h2a1 1 0 0 1 1 1v2a1 1 0 0 1-1 1H7a1 1 0 0 1-1-1v-2zm6 0a1 1 0 0 1 1-1h2a1 1 0 0 1 1 1v2a1 1 0 0 1-1 1h-2a1 1 0 0 1-1-1v-2z"/>
    </symbol>
    <symbol id="icon-lokal" viewBox="0 0 26 32">
      <path d="M20.3 17.9A64 64 0 0 1 12 29.2a64 64 0 0 1-8.3-11.3C2.7 15.7 2 13.7 2 12a10 10 0 0 1 20 0c0 1.7-.6 3.7-1.7 5.9zM12 32s12-11.4 12-20a12 12 0 1 0-24 0c0 8.6 12 20 12 20z"/>
      <path d="M12 16a4 4 0 1 1 0-8 4 4 0 0 1 0 8zm0 2a6 6 0 1 0 0-12 6 6 0 0 0 0 12z"/>
    </symbol>
    <symbol id="icon-heart" viewBox="0 0 34 32">
      <path d="m17 5.9-1.5-1.6C12 .6 5.4 1.9 3 6.5c-1.1 2.2-1.4 5.3.7 9.4 2 3.8 6 8.5 13.4 13.5 7.3-5 11.4-9.7 13.4-13.5 2-4 1.8-7.2.6-9.4-2.3-4.6-9-5.9-12.5-2.2l-1.5 1.6zM17 32C-15.5 10.4 7-6.5 16.8 2.4l.4.4.3-.4c9.7-8.9 32.4 8-.3 29.6z"/>
    </symbol>
  </defs>
</svg>
